<?xml version="1.0" encoding="UTF-8"?>
<svg width="189px" height="36px" viewBox="0 0 189 36" version="1.1" xmlns="http://www.w3.org/2000/svg" xmlns:xlink="http://www.w3.org/1999/xlink">
    <!-- Generator: Sketch 63.1 (92452) - https://sketch.com -->
    <title>logo</title>
    <desc>Created with Sketch.</desc>
    <defs>
        <polygon id="path-1" points="108.27797 32.9295484 116.827701 23.6903226 108.27797 14.4510968 99.3091343 14.4510968 107.858866 23.6903226 99.3091343 32.9295484"></polygon>
    </defs>
    <g id="Page-1" stroke="none" stroke-width="1" fill="none" fill-rule="evenodd">
        <g id="Desktop-HD" transform="translate(-32.000000, -23.000000)" fill-rule="nonzero">
            <g id="logo" transform="translate(32.000000, 23.000000)">
                <path d="M16.5997258,35.6690018 L20.3358465,20.0647986 L24.0246744,35.6690018 L32.726525,35.6690018 L40.6244003,9.28371278 L33.010281,9.28371278 L28.8958191,27.8196147 L24.8286498,9.28371278 L16.2686772,9.28371278 L12.2015079,27.8196147 L8.08704592,9.28371278 L0,9.28371278 L7.89787526,35.6690018 L16.5997258,35.6690018 Z M55.5215901,36 C58.6429061,36 61.3385881,35.1882662 63.6086361,33.5647986 C65.878684,31.941331 67.3920493,29.8056042 68.148732,27.1576182 L68.148732,27.1576182 L59.3995888,27.1576182 C59.0212474,27.6304729 58.7138451,27.969352 58.4773818,28.1742557 C58.2409184,28.3791594 57.8704592,28.584063 57.3660041,28.7889667 C56.861549,28.9938704 56.0969842,29.0963222 55.0723098,29.0963222 C54.0476354,29.0963222 53.0938999,28.7259194 52.2111035,27.9851138 C51.3283071,27.2443082 50.8080877,26.290718 50.6504455,25.1243433 L50.6504455,25.1243433 L68.8108293,25.1243433 C68.9369431,24.3362522 69,23.4851138 69,22.5709282 C69,18.3152364 67.723098,14.9894921 65.169294,12.5936953 C62.6154901,10.1978984 59.3995888,9 55.5215901,9 C51.6435915,9 48.482865,10.2136602 46.0394106,12.6409807 C43.5959561,15.0683012 42.3742289,18.3309982 42.3742289,22.4290718 C42.3742289,26.5271454 43.6038382,29.8134851 46.0630569,32.2880911 C48.5222755,34.762697 51.6751199,36 55.5215901,36 Z M60.5819054,20.0647986 L50.6977382,20.0647986 C50.9184373,18.8353765 51.4701851,17.8345009 52.3529815,17.0621716 C53.2357779,16.2898424 54.3235093,15.9036778 55.6161755,15.9036778 C56.9088417,15.9036778 58.0281014,16.2898424 58.9739548,17.0621716 C59.9198081,17.8345009 60.4557916,18.8353765 60.5819054,20.0647986 L60.5819054,20.0647986 Z" id="we" fill="#2ECC71"></path>
                <g id="Group-9" transform="translate(72.000000, 0.000000)">
                    <path d="M12.4869851,35.7526452 C15.7963582,35.7526452 18.4374925,34.356 20.4103881,31.5627097 L20.4103881,31.5627097 L20.4103881,35.4193548 L28.5724478,35.4193548 L28.5724478,0.185806452 L20.4103881,0.185806452 L20.4103881,12.3270968 C18.596597,9.81948387 15.9952388,8.56567742 12.6063134,8.56567742 C9.21738806,8.56567742 6.34555224,9.84329032 3.99080597,12.3985161 C1.6360597,14.9537419 0.458686567,18.2152258 0.458686567,22.1829677 C0.458686567,26.1507097 1.6360597,29.4042581 3.99080597,31.9436129 C6.34555224,34.4829677 9.17761194,35.7526452 12.4869851,35.7526452 Z M14.5871642,28.7059355 C13.0597612,28.7059355 11.7073731,28.1425161 10.53,27.0156774 C9.35262687,25.8888387 8.7639403,24.2779355 8.7639403,22.1829677 C8.7639403,20.088 9.35262687,18.4691613 10.53,17.3264516 C11.7073731,16.1837419 13.0597612,15.6123871 14.5871642,15.6123871 C16.1145672,15.6123871 17.4669552,16.1758065 18.6443284,17.3026452 C19.8217015,18.4294839 20.4103881,20.0403871 20.4103881,22.1353548 C20.4103881,24.2303226 19.8217015,25.8491613 18.6443284,26.991871 C17.4669552,28.1345806 16.1145672,28.7059355 14.5871642,28.7059355 Z M47.0444776,35.7526452 C50.1947463,35.7526452 52.9154328,34.9352903 55.2065373,33.3005806 C57.4976418,31.665871 59.0250448,29.5153548 59.7887463,26.8490323 L59.7887463,26.8490323 L50.9584478,26.8490323 C50.576597,27.3251613 50.2663433,27.6663871 50.0276866,27.8727097 C49.7890299,28.0790323 49.4151343,28.2853548 48.906,28.4916774 C48.3968657,28.698 47.625209,28.8011613 46.5910299,28.8011613 C45.5568507,28.8011613 44.5942687,28.4281935 43.7032836,27.6822581 C42.8122985,26.9363226 42.2872537,25.976129 42.1281493,24.8016774 L42.1281493,24.8016774 L60.4569851,24.8016774 C60.5842687,24.008129 60.6479104,23.1510968 60.6479104,22.2305806 C60.6479104,17.9454194 59.3591642,14.5966452 56.7816716,12.1842581 C54.2041791,9.77187097 50.9584478,8.56567742 47.0444776,8.56567742 C43.1305075,8.56567742 39.9404627,9.78774194 37.4743433,12.231871 C35.0082239,14.676 33.7751642,17.9612903 33.7751642,22.0877419 C33.7751642,26.2141935 35.0161791,29.5232903 37.498209,32.0150323 C39.9802388,34.5067742 43.1623284,35.7526452 47.0444776,35.7526452 Z M52.1517313,19.7070968 L42.1758806,19.7070968 C42.3986269,18.4691613 42.9554925,17.4613548 43.8464776,16.6836774 C44.7374627,15.906 45.8352836,15.5171613 47.1399403,15.5171613 C48.444597,15.5171613 49.5742388,15.906 50.5288657,16.6836774 C51.4834925,17.4613548 52.0244478,18.4691613 52.1517313,19.7070968 L52.1517313,19.7070968 Z M82.556597,35.4193548 L92.007403,8.85135484 L83.3202985,8.85135484 L77.2584179,28.6107097 L71.1965373,8.85135484 L62.5094328,8.85135484 L71.9602388,35.4193548 L82.556597,35.4193548 Z" id="dev" fill="#34495E"></path>
                    <g id="&gt;">
                        <use fill="#2ECC71" xlink:href="#path-1"></use>
                        <use fill="#D8D8D8" xlink:href="#path-1"></use>
                    </g>
                </g>
            </g>
        </g>
    </g>
</svg>