<?xml version="1.0" encoding="UTF-8"?>
<svg width="190px" height="36px" viewBox="0 0 190 36" version="1.1" xmlns="http://www.w3.org/2000/svg" xmlns:xlink="http://www.w3.org/1999/xlink">
    <!-- Generator: Sketch 63.1 (92452) - https://sketch.com -->
    <title>logo</title>
    <desc>Created with Sketch.</desc>
    <defs>
        <polygon id="path-1" points="108.850869 32.9295484 117.445837 23.6903226 108.850869 14.4510968 99.8345795 14.4510968 108.429548 23.6903226 99.8345795 32.9295484"></polygon>
    </defs>
    <g id="Page-1" stroke="none" stroke-width="1" fill="none" fill-rule="evenodd">
        <g id="Desktop-HD" transform="translate(-58.000000, -3500.000000)" fill-rule="nonzero">
            <g id="Group-2" transform="translate(-5.000000, 3455.000000)">
                <g id="logo" transform="translate(63.000000, 45.000000)">
                    <path d="M16.6875551,35.6690018 L20.4434435,20.0647986 L24.1517891,35.6690018 L32.8996812,35.6690018 L40.8393442,9.28371278 L33.1849386,9.28371278 L29.048707,27.8196147 L24.9600183,9.28371278 L16.3547548,9.28371278 L12.2660661,27.8196147 L8.12983452,9.28371278 L0,9.28371278 L7.93966296,35.6690018 L16.6875551,35.6690018 Z M55.8153552,36 C58.953186,36 61.6631309,35.1882662 63.9451897,33.5647986 C66.2272485,31.941331 67.748621,29.8056042 68.5093073,27.1576182 L68.5093073,27.1576182 L59.7138723,27.1576182 C59.3335292,27.6304729 59.0245004,27.969352 58.7867859,28.1742557 C58.5490714,28.3791594 58.1766521,28.584063 57.6695279,28.7889667 C57.1624038,28.9938704 56.3937937,29.0963222 55.3636977,29.0963222 C54.3336017,29.0963222 53.37482,28.7259194 52.4873527,27.9851138 C51.5998854,27.2443082 51.0769136,26.290718 50.9184373,25.1243433 L50.9184373,25.1243433 L69.1749078,25.1243433 C69.3016888,24.3362522 69.3650794,23.4851138 69.3650794,22.5709282 C69.3650794,18.3152364 68.0814213,14.9894921 65.5141051,12.5936953 C62.946789,10.1978984 59.7138723,9 55.8153552,9 C51.916838,9 48.7393881,10.2136602 46.2830053,12.6409807 C43.8266226,15.0683012 42.5984312,18.3309982 42.5984312,22.4290718 C42.5984312,26.5271454 43.8345464,29.8134851 46.3067768,32.2880911 C48.7790071,34.762697 51.9485333,36 55.8153552,36 Z M60.9024446,20.0647986 L50.9659802,20.0647986 C51.187847,18.8353765 51.7425141,17.8345009 52.6299814,17.0621716 C53.5174487,16.2898424 54.6109352,15.9036778 55.9104409,15.9036778 C57.2099467,15.9036778 58.3351284,16.2898424 59.2859863,17.0621716 C60.2368441,17.8345009 60.7756636,18.8353765 60.9024446,20.0647986 L60.9024446,20.0647986 Z" id="we" fill="#2ECC71"></path>
                    <g id="Group-9" transform="translate(72.380952, 0.000000)">
                        <path d="M12.5530538,35.7526452 C15.8799368,35.7526452 18.5350454,34.356 20.5183795,31.5627097 L20.5183795,31.5627097 L20.5183795,35.4193548 L28.7236247,35.4193548 L28.7236247,0.185806452 L20.5183795,0.185806452 L20.5183795,12.3270968 C18.6949917,9.81948387 16.0798697,8.56567742 12.6730135,8.56567742 C9.26615731,8.56567742 6.37912659,9.84329032 4.01192135,12.3985161 C1.6447161,14.9537419 0.46111348,18.2152258 0.46111348,22.1829677 C0.46111348,26.1507097 1.6447161,29.4042581 4.01192135,31.9436129 C6.37912659,34.4829677 9.22617073,35.7526452 12.5530538,35.7526452 Z M14.6643449,28.7059355 C13.1288605,28.7059355 11.7693169,28.1425161 10.5857143,27.0156774 C9.40211166,25.8888387 8.81031035,24.2779355 8.81031035,22.1829677 C8.81031035,20.088 9.40211166,18.4691613 10.5857143,17.3264516 C11.7693169,16.1837419 13.1288605,15.6123871 14.6643449,15.6123871 C16.1998294,15.6123871 17.559373,16.1758065 18.7429756,17.3026452 C19.9265782,18.4294839 20.5183795,20.0403871 20.5183795,22.1353548 C20.5183795,24.2303226 19.9265782,25.8491613 18.7429756,26.991871 C17.559373,28.1345806 16.1998294,28.7059355 14.6643449,28.7059355 Z M47.2933902,35.7526452 C50.4603269,35.7526452 53.1954087,34.9352903 55.4986354,33.3005806 C57.8018621,31.665871 59.3373466,29.5153548 60.1050888,26.8490323 L60.1050888,26.8490323 L51.2280692,26.8490323 C50.8441981,27.3251613 50.5323028,27.6663871 50.2923833,27.8727097 C50.0524639,28.0790323 49.6765901,28.2853548 49.1647619,28.4916774 C48.6529337,28.698 47.8771942,28.8011613 46.8375432,28.8011613 C45.7978923,28.8011613 44.8302172,28.4281935 43.9345179,27.6822581 C43.0388186,26.9363226 42.5109958,25.976129 42.3510495,24.8016774 L42.3510495,24.8016774 L60.7768633,24.8016774 C60.9048203,24.008129 60.9687989,23.1510968 60.9687989,22.2305806 C60.9687989,17.9454194 59.6732338,14.5966452 57.0821038,12.1842581 C54.4909737,9.77187097 51.2280692,8.56567742 47.2933902,8.56567742 C43.3587112,8.56567742 40.1517879,9.78774194 37.6726202,12.231871 C35.1934526,14.676 33.9538688,17.9612903 33.9538688,22.0877419 C33.9538688,26.2141935 35.2014499,29.5232903 37.6966122,32.0150323 C40.1917745,34.5067742 43.3907005,35.7526452 47.2933902,35.7526452 Z M52.4276664,19.7070968 L42.3990334,19.7070968 C42.6229582,18.4691613 43.1827703,17.4613548 44.0784696,16.6836774 C44.9741688,15.906 46.0777983,15.5171613 47.389358,15.5171613 C48.7009176,15.5171613 49.8365364,15.906 50.7962142,16.6836774 C51.755892,17.4613548 52.2997094,18.4691613 52.4276664,19.7070968 L52.4276664,19.7070968 Z M82.9934044,35.4193548 L92.4942146,8.85135484 L83.7611466,8.85135484 L77.6671926,28.6107097 L71.5732386,8.85135484 L62.8401706,8.85135484 L72.3409808,35.4193548 L82.9934044,35.4193548 Z" id="dev" fill="#FFFFFF"></path>
                        <g id="&gt;">
                            <use fill="#2ECC71" xlink:href="#path-1"></use>
                            <use fill="#FFFFFF" xlink:href="#path-1"></use>
                        </g>
                    </g>
                </g>
            </g>
        </g>
    </g>
</svg>